<?xml version="1.0" standalone="no"?><!DOCTYPE svg PUBLIC "-//W3C//DTD SVG 1.1//EN" "http://www.w3.org/Graphics/SVG/1.1/DTD/svg11.dtd"><svg t="1555210931013" class="icon" style="" viewBox="0 0 1024 1024" version="1.1" xmlns="http://www.w3.org/2000/svg" p-id="8475" xmlns:xlink="http://www.w3.org/1999/xlink" width="200" height="200"><defs><style type="text/css"></style></defs><path d="M984.990476 1022.878476a36.571429 36.571429 0 0 1-27.452952-11.702857L11.459048 67.486476a39.740952 39.740952 0 0 1 0-55.393524 39.838476 39.838476 0 0 1 55.491047 0l945.444572 944.225524a39.107048 39.107048 0 0 1-27.404191 66.511238" p-id="8476" fill="#aaaaaa"></path><path d="M39.545905 1022.878476A39.253333 39.253333 0 0 1 12.190476 955.733333L956.903619 12.141714c16.335238-14.384762 41.106286-13.702095 55.491048 2.584381a39.009524 39.009524 0 0 1 0 52.809143L66.950095 1011.809524a38.521905 38.521905 0 0 1-27.40419 11.068952" p-id="8477" fill="#aaaaaa"></path></svg>