<?xml version="1.0" standalone="no"?><!DOCTYPE svg PUBLIC "-//W3C//DTD SVG 1.1//EN" "http://www.w3.org/Graphics/SVG/1.1/DTD/svg11.dtd"><svg t="1555207907249" class="icon" style="" viewBox="0 0 1024 1024" version="1.1" xmlns="http://www.w3.org/2000/svg" p-id="6926" xmlns:xlink="http://www.w3.org/1999/xlink" width="200" height="200"><defs><style type="text/css"></style></defs><path d="M824.02 133.13c0 38.06 30.84 68.91 68.87 68.91s68.87-30.86 68.87-68.91c0-38.06-30.84-68.91-68.87-68.91-38.54 0-68.87 30.86-68.87 68.91z m-482.1 550.78l34.44-103.37 378.8-379.01 68.87 68.91-378.8 379.01-103.31 34.46zM686.28 64.22H116.8c-27.75 0-50.37 22.63-50.37 50.4v790.43c0 30.34 24.67 54.51 54.48 54.51h788.43c28.78 0 51.91-23.14 51.91-51.94V339.35h-68.87v498.32c0 29.31-23.64 52.45-52.42 52.45H182.08c-25.7 0-46.77-21.08-46.77-46.8V184.05c0-28.28 22.61-50.91 50.88-50.91h499.58V64.22h0.51z" p-id="6927"></path></svg>