<?xml version="1.0" standalone="no"?><!DOCTYPE svg PUBLIC "-//W3C//DTD SVG 1.1//EN" "http://www.w3.org/Graphics/SVG/1.1/DTD/svg11.dtd"><svg class="icon" width="200px" height="200.00px" viewBox="0 0 1024 1024" version="1.1" xmlns="http://www.w3.org/2000/svg"><path fill="#ffffff" d="M753.3 151.6c65.7 0 119.1 53.4 119.1 119.1v482.7c0 65.7-53.4 119.1-119.1 119.1H270.7c-65.7 0-119.1-53.4-119.1-119.1V270.7c0-65.7 53.4-119.1 119.1-119.1h482.6m0-59.5H270.7c-98.2 0-178.6 80.4-178.6 178.6v482.7c0 98.2 80.4 178.6 178.6 178.6h482.7c98.2 0 178.6-80.4 178.6-178.6V270.7c-0.1-98.3-80.4-178.6-178.7-178.6zM166.3 846.1c-9.7 0-19.3-4.8-25-13.6-9-13.8-5-32.2 8.8-41.2l512.4-332.8c10.2-6.6 23.3-6.4 33.3 0.6l200.7 140.5c13.5 9.4 16.8 28 7.3 41.5-9.4 13.5-28 16.7-41.5 7.3l-184.2-129-495.6 321.9c-5 3.3-10.6 4.8-16.2 4.8zM351.8 284.7c19.5 0 35.3 15.8 35.3 35.3s-15.8 35.3-35.3 35.3c-19.5 0-35.3-15.8-35.3-35.3s15.9-35.3 35.3-35.3m0-59.5c-52.4 0-94.8 42.5-94.8 94.8 0 52.4 42.5 94.8 94.8 94.8s94.8-42.5 94.8-94.8c0.1-52.4-42.4-94.8-94.8-94.8z" /></svg>