<?xml version="1.0" standalone="no"?><!DOCTYPE svg PUBLIC "-//W3C//DTD SVG 1.1//EN" "http://www.w3.org/Graphics/SVG/1.1/DTD/svg11.dtd"><svg t="1555209002409" class="icon" style="" viewBox="0 0 1024 1024" version="1.1" xmlns="http://www.w3.org/2000/svg" p-id="7745" xmlns:xlink="http://www.w3.org/1999/xlink" width="200" height="200"><defs><style type="text/css"></style></defs><path d="M928.835082 431.858752c-8.863878-7.133468-21.827121-5.723352-28.941146 3.203972l-35.280528 44.230364c-1.155313-17.10661-3.417843-34.320667-7.005554-51.577702C813.591361 214.954677 606.574471 78.438467 395.243321 122.754788 183.890682 167.07111 48.251446 375.433648 92.266915 588.152401c44.018539 212.759685 251.034407 349.276918 462.386022 304.96162 76.822666-16.10377 142.860708-54.525847 194.543811-106.422821 0.192382-0.170892 0.384763-0.343831 0.577145-0.554632 0.916882-0.918929 1.237177-2.00875 2.156106-2.992147 1.515516-2.540869 2.606361-5.595438 2.606361-8.777921 0-9.41851-7.604188-17.064654-16.95823-17.064654-5.040806 0-9.44 2.306532-12.559037 5.808286l-0.12689-0.084934c-46.922682 47.050596-107.127879 81.734536-176.839591 96.343255C356.670817 899.499451 169.197028 775.84006 129.344369 583.195505c-39.874149-192.639438 82.97376-381.354498 274.355555-421.484474 191.381795-40.10951 378.857631 83.528392 418.711314 276.1709 3.074012 14.821567 5.166673 29.578666 6.40692 44.252877l-42.756803-34.535561c-8.885368-7.154957-21.828145-5.721305-28.940123 3.182482-7.134491 8.927323-5.702885 21.956058 3.160993 29.153994 0.042979 0.021489 0.042979 0.021489 0.084934 0.021489l78.787414 63.687508c0.021489 0 0.063445 0.041956 0.086981 0.063445 4.484128 3.631714 10.036587 5.019317 15.33322 4.379751 5.339612-0.533143 10.44284-3.078105 14.052041-7.605212 0.021489-0.041956 0.042979-0.083911 0.042979-0.083911l63.260789-79.345116c0.020466-0.019443 0.020466-0.019443 0.063445-0.041956C939.106006 452.063933 937.69896 439.036221 928.835082 431.858752z" p-id="7746"></path><path d="M564.542168 339.103208 402.033981 339.103208l-9.097192 0c-36.732599 0-66.50774 29.538757-66.678632 66.101487l-0.042979 0 0 0.384763 0 213.767642 0 5.442966c0 0.040932 0 0.040932 0 0.063445 0 1.943258 0.427742 3.824095 0.982374 5.596462 5.362124 31.396057 32.677237 55.335283 65.738213 55.335283l9.097192 0 162.508187 0 4.229325 0 0-0.191358c31.097252-1.964748 56.360635-25.116027 61.46591-55.144948 0.596588-1.771343 0.982374-3.65218 0.982374-5.596462 0-0.022513 0-0.022513 0-0.063445l0-5.442966L631.218754 405.589458l0-0.384763 0 0c-0.192382-35.154661-27.742854-63.685461-62.448284-65.866127l0-0.234337L564.542168 339.104231zM596.131631 615.853299c0 19.306718-15.72003 34.96228-35.091216 34.96228L402.075937 650.815579c0 0-0.019443 0-0.042979 0l-5.615904 0c-19.371186 0-35.091216-15.655562-35.091216-34.96228l0-6.431479 11.319813 0 56.469106-75.601862 62.576197 44.445258c2.200108 2.199085 5.082762 3.224438 7.966439 3.139503 2.862187 0.084934 5.76633-0.940418 7.988951-3.139503l88.484264-98.417497L596.130607 615.853299zM596.131631 409.071769l0 48.460712c-3.825119-1.36816-8.267291-0.599657-11.342326 2.477424l-86.774319 96.513124-62.749136-44.574195c-2.284019-2.285043-5.317099-3.225461-8.28571-3.077082-2.990101-0.148379-6.043646 0.791016-8.330736 3.077082l-57.322543 76.694753L361.32686 409.071769c0-19.329231 15.719007-35.006282 35.091216-35.006282l5.615904 0 159.006434 0C580.410578 374.064464 596.131631 389.741515 596.131631 409.071769z" p-id="7747"></path><path d="M416.579255 415.478689c-17.192567 0-31.16172 13.94664-31.16172 31.138184 0 17.193591 13.969153 31.160697 31.16172 31.160697 17.191544 0 31.160697-13.967106 31.160697-31.160697C447.739952 429.42533 433.770799 415.478689 416.579255 415.478689zM426.980139 456.977849l-20.802792 0L406.177348 436.258968l20.802792 0L426.980139 456.977849z" p-id="7748"></path></svg>